<svg xmlns="http://www.w3.org/2000/svg" style="display:none;">

<symbol id="bubble1" viewBox="0 0 1024 1024">
<title>bubble1</title>
<path class="path1" d="m 665.21775,1001.9813 c -107.8456,-2.80957 -176.47401,-2.89027 -340.04696,-0.3995 l -135.48962,2.0631 -1.70936,-17.55207 c -0.94015,-9.6537 -2.0708,-19.68689 -2.51255,-22.29597 -0.44176,-2.60909 -1.94787,-14.88362 -3.34693,-27.27677 -2.83836,-25.14295 -20.1285,-150.32091 -21.78647,-157.73082 -0.58377,-2.60908 -2.2032,-16.48465 -3.59868,-30.8346 -1.39548,-14.34995 -4.61756,-36.63926 -7.16016,-49.5318 C 142.16284,643.41693 139.1032,659.144 86.44241,664.59881 l -75.243485,10.62307 37.970584,-35.30279 c 9.085456,-8.44712 26.68927,-33.18476 33.880536,-44.17627 32.781485,-49.23304 35.790435,-106.64746 40.087345,-162.06387 1.83948,-24.134 4.9165,-58.28925 6.83783,-75.90055 6.92401,-63.46686 10.66122,-101.75551 15.27978,-156.54489 5.46177,-64.79262 14.66636,-140.557195 18.25192,-150.234836 2.27392,-6.137397 3.24035,-6.601381 11.13883,-5.347739 11.71602,1.859566 67.774,5.565009 111.50532,7.370527 19.70455,0.81353 69.11032,0.376279 109.79066,-0.97167 40.68032,-1.34795 101.52745,-3.064624 135.21586,-3.81483 106.19417,-2.36483 237.98095,-9.650977 278.52152,-15.398728 8.89882,-1.261653 39.06236,-4.4817 67.03009,-7.155659 27.96772,-2.673958 56.20204,-5.495282 62.74297,-6.269608 l 11.89259,-1.407867 1.36154,24.609254 c 0.74885,13.535089 3.08307,89.717686 5.18713,169.294676 3.08154,116.5451 3.3278,156.67966 1.26622,206.35463 -2.71876,65.51107 -1.79399,88.70088 6.37381,159.83022 4.42287,38.51656 8.45206,76.15239 15.33352,143.22706 1.8755,18.28079 4.92551,53.63304 6.77774,78.56056 6.97962,93.93177 12.92868,159.85531 16.23698,179.92873 1.8813,11.4153 3.4206,21.55507 3.4204,22.53287 -3e-4,2.4816 -242.82695,2.2261 -342.08435,-0.3598 z">	    
</path></symbol>
  
<symbol id="bubble1r" viewBox="0 0 1024 1024">
<title>bubble1r</title>
<path class="path1" d="m 353.28328,1001.9813 c 107.8456,-2.80957 176.47401,-2.89027 340.04696,-0.3995 l 135.48963,2.0631 1.70935,-17.55207 c 0.94016,-9.6537 2.0708,-19.68689 2.51256,-22.29597 0.44176,-2.60909 1.94786,-14.88362 3.34693,-27.27677 2.83836,-25.14295 20.1285,-150.32091 21.78647,-157.73082 0.58377,-2.60908 2.2032,-16.48465 3.59868,-30.8346 1.39548,-14.34995 4.61756,-36.63926 7.16016,-49.5318 7.40418,-55.00594 10.46382,-39.27887 63.1246,-33.82406 l 75.24348,10.62307 -37.97058,-35.30279 c -9.08546,-8.44712 -26.68927,-33.18476 -33.88054,-44.17627 -32.78148,-49.23304 -35.79043,-106.64746 -40.08734,-162.06387 -1.83948,-24.134 -4.9165,-58.28925 -6.83783,-75.90055 C 881.6018,294.31154 877.86459,256.02289 873.24603,201.23351 867.78426,136.44089 858.57967,60.676315 854.99411,50.998674 c -2.27392,-6.137397 -3.24035,-6.601381 -11.13883,-5.347739 -11.71602,1.859566 -67.774,5.565009 -111.50532,7.370527 -19.70455,0.81353 -69.11032,0.376279 -109.79066,-0.97167 C 581.87899,50.701842 521.03185,48.985168 487.34344,48.234962 381.14927,45.870132 249.36249,38.583985 208.82192,32.836234 199.9231,31.574581 169.75956,28.354534 141.79183,25.680575 113.82412,23.006617 85.589785,20.185293 79.048855,19.410967 L 67.156265,18.0031 65.794725,42.612354 c -0.74885,13.535089 -3.08307,89.717686 -5.18713,169.294676 -3.08154,116.5451 -3.3278,156.67966 -1.26622,206.35463 2.71876,65.51107 1.79399,88.70088 -6.37381,159.83022 -4.42287,38.51656 -8.45206,76.15239 -15.33352,143.22706 -1.8755,18.28079 -4.92551,53.63304 -6.77774,78.56056 -6.97962,93.93177 -12.92868,159.85531 -16.23698,179.92873 -1.8813,11.4153 -3.4206,21.55507 -3.4204,22.53287 3e-4,2.4816 242.826965,2.2261 342.084355,-0.3598 z">
</path></symbol>

</svg>
