<svg xmlns="http://www.w3.org/2000/svg" style="display:none;">

<symbol id="minion1" viewBox="0 0 1024 1024">
<title>minion1</title>
<path class="path1" d="m378.22209 1000.8547c-8.5026-2.57224-11.36442-7.90276-11.36442-21.06168 0-6.91477 1.43924-15.7122 3.19273-19.53308 2.13383-4.65958 2.99405-11.7609 2.58045-21.43417l-0.61116-14.46347-16.12856-2.75853c-21.20693-3.63452-32.72015-10.21398-48.89839-27.97633-9.32972-10.23251-13.82911-13.77388-14.95403-11.7609-3.40764 6.03883-1.47223 10.77307 6.07098 14.92943 4.2678 2.34846 9.61091 7.64172 11.89377 11.74225 3.27526 5.92707 5.55806 7.49264 10.95085 7.56727 4.48288 0.0535 8.63496 2.14333 12.14188 6.09469 4.49939 5.06969 5.14454 7.45546 4.20168 15.4141-2.33253 19.66348-20.23096 34.14565-42.49669 34.38797-13.15093 0.14927-20.39635-5.05107-35.91286-25.77708-15.84729-21.13604-17.28642-25.72105-19.00689-60.33264-0.67806-13.45704-1.76994-27.73414-2.44819-31.74142-0.90985-5.44236-0.19824-8.38736 2.82874-11.64901 3.5731-3.85817 4.2347-8.96511 5.57463-42.81259 1.7204-43.46488 1.38959-38.69344 6.20335-92.89414 2.87827-32.50551 3.09335-41.52653 1.04207-45.83198-3.95351-8.31286-0.81055-33.97799 5.42582-44.32234l5.06193-8.40603-0.16513-106.92892c-0.16587-99.84627-0.41352-107.13397-3.87082-109.89244-6.51764-5.21877-8.07256-11.79815-8.20487-34.79805-0.0996-19.32814 0.47908-23.37267 4.1355-28.61009 3.58962-5.14418 9.94171-25.68378 10.02456-32.41226 0.0214-1.99432-6.53423-1.15551-16.52556 2.1062-4.99573 1.64022-5.04533 1.54698-1.48887-2.70255 2.01818-2.40444 7.49359-5.46109 12.17504-6.7658 8.20488-2.29249 8.70115-2.98226 14.85482-20.72604l6.36862-18.35895-8.68458-8.66681c-9.11471-9.11421-15.45029-11.49986-31.23141-11.7609-5.26041-0.0936-11.43067-1.02514-13.69687-2.0874-4.13557-1.91994-4.13557-1.91994 0-3.91418 2.28278-1.09959 10.27266-1.99424 17.76611-1.99424 11.34797 0 15.94658 1.30459 27.49298 7.84674 7.62597 4.3241 14.12703 7.45538 14.44125 6.9894 0.31469-0.46618 2.76263-4.95785 5.4424-9.95301l4.86336-9.09548-6.0544-5.49833c-6.94765-6.31849-23.04312-12.32007-33.82857-12.61829l-7.37779-0.20602 6.20328-2.14352c8.30416-2.8703 24.78002 1.15563 34.58951 8.46186 4.23485 3.14996 8.03947 5.74075 8.43647 5.74075 1.63769 0 25.21018-35.43173 25.21018-37.89197 0-4.1005-19.0565-19.40277-27.84042-22.36623-4.28439-1.45394-10.7192-2.62804-14.27572-2.62804-3.55659 0-6.48462-1.17416-6.48462-2.60938 0-3.82094 20.09866-1.41649 29.24647 3.52277 4.15216 2.23648 11.31482 7.71623 15.94658 12.17084 8.17178 7.88405 8.55226 8.01454 13.6307 4.24952l5.22724-3.85812-4.28437-6.76574c-2.34898-3.72769-7.92369-9.11427-12.37347-11.98456-8.25456-5.31201-10.33885-8.70413-5.32647-8.70413 3.17605 0 17.48499 11.23893 21.7528 17.09149 3.77154 5.14426 4.25136 5.03236 14.30887-3.2991 9.87564-8.18223 9.6937-9.69209-3.09335-25.64647-4.0197-5.01381-6.66653-9.11426-5.88898-9.11426 3.72192 0 9.21392 5.2374 14.49085 13.84843 6.2364 10.1393 9.42905 11.53719 13.56453 5.90836 4.2183-5.72195-10.35529-36.382297-25.30935-53.231398-13.53141-15.246427-14.50744-19.96187-1.8031-8.611028 6.81533 6.076155 27.06282 36.289116 27.06282 40.389496 0 0.63406 1.40628 4.92053 3.10991 9.54293 2.96107 7.95864 3.39118 8.2568 8.78388 5.68475 11.28175-5.36785 11.95996-7.45538 6.15366-18.5639-6.50109-12.413228-14.17659-20.744686-26.31848-28.5169-6.30253-4.044525-7.97332-5.964399-5.1611-5.982991 9.47859-0.03342 29.09759 19.42136 36.97156 36.661871 1.90232 4.15644 4.13547 7.54864 4.94606 7.52997 4.946-0.1124 18.13021-7.02664 18.62648-9.7666 0.33039-1.78916-1.77009-7.19434-4.64835-11.984497-5.82281-9.673293-6.17024-10.828985-3.17605-10.828985 1.14129 0 4.63167 5.293462 7.75817 11.760903l5.6905 11.760969 9.3132-1.43523c19.61893-3.03803 18.6098-1.84522 18.62632-21.75101 0.0222-9.785333 0.99261-24.546966 2.16708-32.803832 2.29932-16.010428 9.51167-37.426031 12.58854-37.426031 1.02556 0 0.57856 2.888895-1.00913 6.411644-5.24381 11.667678-8.22148 31.722631-8.41994 56.49331l-0.18224 24.472239 5.06179 0c4.76413 0 5.21082-1.11837 7.51015-19.234878 2.4648-19.439953 10.00792-46.074325 13.81263-48.702423 1.15795-0.801428 1.55495-0.02025 0.89326 1.789304-5.82274 15.991896-10.45455 38.283498-10.58694 50.994889l-0.14889 15.153108 16.31048 1.95706c12.15842 1.45381 16.70756 1.23022 17.86559-0.87606 0.86007-1.56564 3.14295-11.854073 5.09489-22.888078 3.52343-19.961789 14.40803-51.2744 16.85625-48.515934 0.71191 0.801468-0.16595 4.901912-1.93536 9.0956-3.75501 8.965049-9.66056 27.678105-9.7102 30.772121-0.0222 1.192896 2.48141-0.391266 5.55828-3.485444l5.59108-5.647421-3.50682 5.83391c-7.72521 12.804575-10.17343 19.775381-10.45464 29.858733l-0.3141 10.530763 12.32376 4.1751c6.7823 2.29247 12.47281 3.95134 12.6712 3.69036 0.19779-0.26152 2.69639-5.72199 5.5748-12.13357 2.86173-6.411673 7.75816-14.27713 10.86806-17.46433l5.65747-5.815236-2.6466 5.833829c-1.45598 3.205933-4.23489 8.443294-6.1704 11.649084-6.07084 10.046233-8.38683 20.315933-5.2438 23.260893 2.15041 2.01295 4.10251-0.11241 9.04843-9.84111 7.09663-13.960353 23.15895-33.362918 29.51115-35.636874 7.12959-2.553384 6.53405 0.466182-1.17448 5.833829-11.52977 8.033214-28.02227 33.213775-28.02227 42.775355 0 1.82663 2.96101 4.71552 6.58377 6.39293 3.62269 1.69614 10.68621 6.59813 15.69844 10.92223l9.13125 7.84674 12.10878-13.00951c17.70009-19.0113 38.17909-28.4238 50.40367-23.14905 6.18685 2.68387 3.24229 4.9205-8.20481 6.26242-6.6168 0.76422-15.15253 3.76501-20.18135 7.08278-8.91627 5.88975-27.64186 28.72176-25.50797 31.10755 0.64524 0.7269 6.10411-3.67179 12.10893-9.80386 10.52071-10.71715 24.25067-19.60769 30.43738-19.70087 1.62118-0.0334-3.02724 4.02587-10.33886 9.00238-7.31153 4.97644-16.01267 12.84196-19.33763 17.44558l-6.03788 8.38736 12.30732 14.57522c6.76564 8.01469 14.12696 17.42698 16.37672 20.91249 3.77159 5.87109 4.66478 6.16925 12.34028 4.1377 10.45463-2.77713 18.14665-2.90756 16.70763-0.27959-0.61116 1.11839-4.99578 2.72128-9.74331 3.57869-4.74761 0.85739-9.37943 2.06882-10.28928 2.70261-0.90972 0.63408 3.45734 10.00886 9.72679 20.81911 13.9285 24.08091 22.24908 46.242 25.83874 68.92507 2.18352 13.79254 3.85434 18.26573 8.43652 22.60842 5.67384 5.38659 5.70703 5.53573 4.89644 30.02663-0.74436 22.62716-1.24078 25.12464-6.12062 30.86537-5.29336 6.22524-5.31002 6.41164-5.31002 46.89439 0 22.34758 1.00912 73.67791 2.23323 114.03015 2.16693 71.38543 2.36554 73.54749 6.94773 79.21362 5.60769 6.9335 10.27261 34.46244 7.34465 43.18531-1.24077 3.70902-0.57856 12.99104 2.03456 28.34914 6.15366 36.14004 8.68469 73.1746 8.03944 117.19868-0.51262 34.90989-0.0993 41.60107 2.84537 46.59622 2.82863 4.7901 3.06027 7.49273 1.29026 15.15311-1.19107 5.12552-2.86181 22.44068-3.72203 38.46978-2.08418 38.93582-7.55964 52.69097-25.17698 63.16581-2.97752 1.77063-9.31327 6.28122-14.07732 10.0275-23.02664 18.06083-55.58139 4.38003-61.07336-25.70246-2.7295-14.94808 9.0154-34.64897 19.33772-32.4124 2.87825 0.61534 7.89055-2.49749 15.06979-9.4123 5.92207-5.68474 11.86061-10.34435 13.21709-10.34435 5.3101 0 6.83194-5.64756 4.44988-16.3274-1.29033-5.75932-2.56408-10.8476-2.8287-11.31344-0.28076-0.4662-5.75658 5.55412-12.20811 13.40098-14.68939 17.87431-30.45404 26.72754-56.68971 31.83445-26.81468 5.21891-29.4284 6.52356-27.75766 14.03486 0.74459 3.33628 5.1115 10.00886 9.71021 14.85494 7.60941 7.99574 8.45304 10.02737 9.24711 22.5525 0.72821 11.239 0.13112 14.79888-3.24236 19.49583-3.58958 4.99522-6.15366 5.85252-19.66842 6.61662-17.36932 0.988-55.91237-5.0695-62.38028-9.80382-2.31591-1.69608-8.70122-3.63449-14.20964-4.3242-5.50857-0.68945-10.85171-2.21796-11.8938-3.3922-1.14143-1.286-1.00913-12.04035 0.34744-27.21211 1.22411-13.79247 1.70385-26.65302 1.05862-28.57275-2.15027-6.31854-5.04534-0.98788-6.46784 11.92865-0.77755 6.98946-2.5806 13.79239-4.00318 15.13437-1.91898 1.80798-2.10092 5.42391-0.67783 14.22121 1.90239 11.79808 0.0667 18.43334-5.11157 18.43334-1.17455 0-7.32813 2.87036-13.69691 6.39307-10.27262 5.66624-14.15994 6.44894-34.32484 6.84044-12.50584 0.2429-24.59804-0.1316-26.88083-0.82zm19.65205-24.02503c2.74602-1.95705 2.72942-2.62817-0.14891-5.87121-4.11896-4.64101-16.45946-6.76581-20.52871-3.54128-2.66335 2.10612-2.41518 3.11248 1.78653 7.08256 5.19416 4.90205 13.79611 5.9644 18.89109 2.32993zm168.43157-0.42873c10.27269-5.27467 3.11005-13.51288-8.83354-10.13933-8.27088 2.32985-11.28166 5.77797-8.41977 9.65476 2.87833 3.89544 10.20638 4.10044 17.25331 0.48492zm60.29595-111.92407c-11.62912-11.23907-17.7001-24.39774-17.76625-38.56295-0.037-5.83383-1.00898-9.89709-2.4151-9.89709-3.82116 0-0.36374 27.36127 4.58211 36.3823 5.07845 9.26329 18.09701 21.86299 22.54689 21.8444 1.73697 0-1.40605-4.39875-6.94765-9.76666zm-316.00367 0.67106c10.63662-6.1694 18.24603-15.99177 20.90922-27.00719 2.81215-11.68639 2.91144-22.12391 0.19825-22.12391-1.14143 0-2.06779 3.5972-2.06779 7.99595 0 4.39863-0.99248 10.95944-2.2001 14.55664-2.84524 8.51778-13.29981 20.65136-20.82644 24.15547-3.25888 1.52831-5.93859 3.69043-5.93859 4.80875 0 2.90755 1.27366 2.60938 9.90862-2.40438zm387.82946-19.40265c4.79716-44.93741-3.01079-159.37762-11.79446-172.90909-2.13404-3.28038-6.17033-1.60298-34.44069 14.40753l-32.02551 18.13522-3.40771 34.16434c-1.8858 18.78749-4.01969 37.29561-4.78065 41.13507-0.79392 4.10051-0.44671 7.60448 0.86015 8.51785 2.54749 1.77071 39.84999-2.85169 46.7149-5.79657 8.18835-3.50403 11.94342-42.08578 6.17024-63.50138-3.12642-11.59309-2.5806-16.40177 2.63016-23.24209 2.38207-3.13122 3.75509-3.44812 5.93854-1.41655 2.38213 2.23663 2.33258 3.50396-0.34745 8.12644-2.84513 4.90187-2.86173 6.35566-0.0445 13.94161 3.60609 9.71048 4.21815 39.77438 1.07513 52.15042-1.38961 5.46093-1.37287 10.49343 0.0444 15.35804 2.33244 7.95856-2.58059 36.5873-10.09067 58.87894l-3.95354 11.7236 4.4167 0.96916c2.43177 0.5411 10.57041 1.11845 18.08057 1.28606l13.66366 0.31702 1.30693-12.22682zm-421.09556 3.39228c1.91889-1.3793 1.81962-4.41742-0.4636-13.36394-5.21074-20.44638-6.56724-45.10496-4.46629-80.31307 1.10826-18.58263 2.00152-42.43986 1.9685-53.00795-0.0356-14.3329 0.64495-19.21622 2.66319-19.21622 6.89805 0 9.36289 17.96749 5.82288 42.49578-1.52184 10.58674-2.79572 26.82082-2.81216 36.06546-0.0423 20.40918 1.15788 21.5275 25.2763 23.39117l16.50897 1.26747-1.22407-9.09554c-0.66183-4.99509-2.29944-23.76407-3.60627-41.71288-1.32333-17.93024-3.0436-34.01518-3.85423-35.72997-2.10088-4.51052-46.3344-35.33856-47.97211-33.43736-2.96096 3.4294-8.08901 62.36434-10.33877 118.85751-2.26628 56.71682-2.20008 59.45663 1.45571 62.47616 4.13556 3.41085 16.98874 4.19375 21.02495 1.28606zm210.21696-31.29404c4.92954-1.65873 12.55549-7.30629 18.14673-13.40112 11.97639-13.08415 16.37656-27.56627 17.7661-58.37563 1.30685-29.16923 1.75348-28.75911-28.7336-25.88887-27.70801 2.60931-63.45542 0.18653-85.70458-5.81523-6.02135-1.62149-7.16272 6.39291-4.89652 34.14572 2.39874 29.39282 4.63176 36.96006 14.70598 49.85786 17.25339 22.0866 41.02439 28.81514 68.73234 19.45862zm-37.99723-3.83958c-17.2865-6.39293-30.38788-21.06138-35.86319-40.1845-2.13404-7.4554-3.40771-19.75673-3.40771-32.85967 0-20.78187 0.037-20.94962 4.81368-19.58905 14.60664 4.13777 48.50135 6.44897 73.23193 5.01377l27.39369-1.58431 0 20.78199c0 34.05243-7.8244 53.6974-25.44166 63.83667-9.37936 5.40518-31.72786 7.90285-40.72674 4.5851zm36.69037-13.43825c10.52071-8.7787 19.55278-28.79647 13.01856-28.79647-1.10824 0-9.01531 6.87756-17.56762 15.30218l-15.56613 15.30219-16.57518-16.94247c-9.11467-9.31921-16.32709-17.632-16.02935-18.47073 0.2978-0.83873 7.22893-7.99583 15.4007-15.91726l14.85488-14.38888 13.28317 13.47569c13.06828 13.27058 13.18422 13.47558 7.39451 14.20247-3.24236 0.39129-7.97344-0.9133-10.50433-2.9076-8.96576-7.08265-20.23092-3.44812-20.23092 6.54207 0 10.17666 12.19146 17.09155 18.19615 10.32582 3.63935-4.10058 3.02737-6.52348-1.654-6.52348-2.26636 0-4.13563-1.11832-4.13563-2.49755 0-1.45381 3.68892-2.3484 8.78382-2.10622 4.8302 0.22341 12.80372 0.29764 17.71668 0.16729 8.27095-0.20601 8.81679-0.59663 7.47704-5.46109-8.28771-30.04509-48.1211-38.26471-66.48273-13.69923-12.86974 17.24065-6.17018 41.86204 14.92096 54.81576 8.7507 5.36785 30.02392 4.00728 37.71594-2.40436zm128.21785-102.8658c5.32647-7.62319 0.41336-21.45285-7.60942-21.45285-6.30257 0-12.53889 6.95208-12.53889 13.9788 0 12.35725 13.31629 17.27792 20.16482 7.47405zm-281.76159-4.26826c5.1281-5.77785 3.2754-17.46416-3.44073-21.69511-5.06193-3.18726-5.9221-3.11261-9.82607 0.87594-5.65734 5.77797-5.39266 11.90998 0.79405 18.88085 5.97169 6.72842 7.94026 7.02666 12.47275 1.93832zm235.75794-33.45601 43.42297-2.14345 31.01646-12.73006c22.57993-9.26336 31.01639-13.75515 31.03291-16.51367 0.0222-2.08749 1.09187-4.52918 2.39866-5.44236 1.76993-1.23023 1.90232-13.0657 0.49634-45.92531-1.02557-24.34188-2.44822-77.29375-3.14309-117.64608-1.40591-81.35695-0.99247-79.21349-15.18551-79.21349-5.14459 0-8.15524 1.41643-9.95836 4.65961-1.62111 2.9262-4.83028 4.65959-8.56876 4.65959-4.92956 0-6.98077 1.90114-11.59607 10.77302-8.3703 16.08508-18.39475 27.54774-33.44816 38.26491-39.519 28.12541-87.67298 22.42201-121.71659-14.40761l-13.31645-14.40748-13.31637 14.40748c-31.34731 33.92199-75.08453 41.58245-114.27271 20.01776-17.99786-9.91574-36.74008-30.1012-43.8863-47.26726-5.17764-12.46902-9.77638-15.15298-14.62316-8.55499-1.96857 2.6839-2.53096 30.28749-2.41517 119.36082 0.14891 106.85434 0.42975 116.09896 3.722 118.80165 1.95198 1.62149 11.54633 7.54863 21.28962 13.17731 17.4354 10.0835 18.31207 10.30711 52.86856 14.18388 62.39672 6.98948 149.70596 9.33793 219.18273 5.90854zm-123.0236-41.32148c-38.16258-4.84599-63.42238-21.88164-83.52104-56.38139-13.41554-22.99985-17.33604-40.44556-10.53727-46.8013 3.34151-3.1312 8.85004-2.44155 27.82383 3.48544 9.29667 2.88896 27.34406 3.52263 101.40309 3.52263 86.01882 0 90.46856-0.20601 98.21036-4.65961 4.46632-2.55346 9.29668-4.6596 10.73577-4.6596 4.59884 0 5.35973 11.27627 1.83616 27.43584-7.62587 35.02173-23.29126 59.1772-44.38239 68.4219-9.74331 4.26826-17.76624 5.34924-49.85777 6.74702-21.04172 0.91344-39.65153 2.14352-41.3553 2.72126-1.70393 0.5973-6.3522 0.67106-10.33878 0.16729zm26.88098-10.86631c0-4.17501-14.54055-10.73582-23.771-10.73582-7.79137 0-23.77101 6.33713-23.77101 9.41258 0 2.83304 7.11316 3.89536 28.43579 4.24958 15.08645 0.24213 19.12274-0.37255 19.12274-2.92634zm56.32582-4.84601c1.53843-9.05836-4.78057-13.68055-20.19787-14.78021-7.2951-0.52238-15.59916-0.29765-18.42793 0.50296-6.38531 1.8079-13.54802 10.1766-13.54802 15.8241 0 3.83947 2.26628 4.21228 25.60717 4.21228 25.60723 0 25.60723 0 26.58317-5.75933zm16.55858-0.50296c12.20805-4.93932 12.86974-8.85342 1.14137-6.7285-8.73411 1.56551-14.06074 4.84595-14.06074 8.6295 0 2.8703 1.75357 2.60944 12.91937-1.901zm26.53355-39.81182c5.67398-5.72208 6.56725-8.33152 7.55985-22.19842l1.12477-15.71227-5.59131 2.40439c-3.07679 1.3233-12.96901 2.4043-22.00085 2.4043l-16.40982 0-0.0445 6.41164c-0.037 3.52277-1.80312 10.79174-3.97005 16.14094l-3.92042 9.72933 7.57622 3.54129c4.1686 1.95699 12.45615 3.59722 18.41135 3.67179 8.9988 0.0936 11.91032-0.96923 17.25331-6.35581zm-172.12049-0.65213c5.62442-1.36065 11.86068-3.83952 13.89539-5.49834 3.5069-2.88895 3.47378-3.35489-0.52894-9.7666-2.31591-3.70903-4.81377-8.94645-5.57465-11.66765-1.1249-4.10047-3.55661-5.18145-14.47447-6.44899-7.21235-0.83874-17.98115-3.1498-23.93635-5.14418-13.56454-4.54771-17.18725-3.28036-15.33448 5.3865 1.47223 6.89624 10.25611 27.84592 13.69685 32.67334 2.5309 3.55988 18.46091 3.78361 32.25702 0.44678zM520.45104 562.31c5.87244-2.51629 11.82756-15.39543 11.82756-25.59068l0-7.21314-14.98696-0.0203c-8.23807 0-21.12432-0.67092-28.61788-1.4724-11.06668-1.17423-13.86227-0.78282-14.82183 2.05016-2.24969 6.61678 1.05869 22.66439 5.88889 28.53549 4.30112 5.21889 6.4185 5.83389 20.26424 5.83389 8.50262 0 17.71647-0.96916 20.46257-2.14345zm-54.85363-10.92229c3.09332-3.89539 4.64842-8.79732 4.64842-14.72431l0-8.87195-29.46151 1.13698c-16.2113 0.63406-29.82539 1.50965-30.25543 1.93845-1.58815 1.58418 4.33402 14.57516 8.80034 19.3094 5.16113 5.46101 23.3574 9.74801 34.39105 8.12644 4.21816-0.61533 9.18075-3.5041 11.89373-6.91501zM406.64136 444.42159c20.54531-8.08918 33.38208-18.78763 48.8819-40.74378l4.11896-5.81518 10.66976 13.43831c13.68026 17.22199 25.47479 26.26153 43.40646 33.32567 39.45291 15.52577 83.40526-2.62812 107.87092-44.58333 6.40183-10.97801 9.99148-15.00396 13.33288-15.00396 5.19425 0 11.08329-5.66607 11.08329-10.64252 0-4.08185-1.05876-4.1005 17.93167 0.31704 8.63484 2.0129 16.39323 2.79565 17.23679 1.75186 0.84371-1.04367 2.05114-12.15219 2.66328-24.65866l1.12484-22.7575-7.82441-4.49193c-4.30097-2.47896-12.37346-5.74067-17.93159-7.26905-6.71608-1.84521-11.71186-4.99496-14.90443-9.43109-2.64676-3.67171-6.58378-6.67259-8.75079-6.67259-2.64674 0-5.60767-3.70895-8.98242-11.16441-7.0633-15.7122-22.16627-33.82883-36.17744-43.42761-41.3056-28.27458-95.94409-15.78678-124.2312 28.36781l-7.16271 11.18301-13.51482-15.43261c-30.17284-34.46257-71.08136-43.33451-108.41689-23.5404-22.43106 11.89133-42.41399 36.55005-50.02333 61.73059-2.87834 9.50562-4.51596 11.38809-14.27577 16.42051-6.07097 3.13128-12.02609 7.79083-13.25028 10.36301-1.43914 3.03811-1.68724 11.74218-0.69503 25.0128 1.19103 15.89861 2.33246 20.91236 5.2439 22.92546 2.96097 2.05016 4.15207 1.73332 5.78964-1.50986 1.40611-2.77706 4.5988-4.08185 10.00805-4.08185 6.63336 0 8.1552 0.91332 9.16432 5.49834 2.31582 10.41898 17.86541 33.56797 29.08093 43.31592 26.08693 22.68301 58.92296 29.1879 88.50026 17.5574zm-43.17487-24.52828c-19.60232-4.38003-39.02279-20.8937-48.18699-40.98598-23.52287-51.55399 10.02442-112.74423 61.80123-112.68823 31.94277 0.0334 56.64007 20.8565 66.49925 56.06449 5.1446 18.35889 4.69789 29.05733-2.0347 48.94461-8.25452 24.43513-26.10343 41.67578-49.54359 47.90095-12.96901 3.42945-16.07899 3.52269-28.51862 0.74549zm34.96999-10.56802c12.67143-4.86467 27.32761-19.73812 33.99399-34.48128 7.60934-16.8491 7.60934-39.64389 0-56.49319-15.6488-34.63018-54.04288-48.25489-84.09994-29.82149-11.77799 7.21307-18.54373 15.1531-25.45828 29.82149-6.51757 13.84853-6.43487 42.79408 0.18201 56.86613 14.40803 30.62291 46.54936 45.161 75.3823 34.08968zm-6.36857-35.86079c-8.40355-5.92693-13.61424-18.91805-11.86075-29.48606 1.47228-8.81603 11.49672-21.17328 18.87457-23.26068 15.38402-4.34283 29.77568 7.88399 31.38034 26.67147 0.89334 10.54948 0.39707 12.20823-6.05454 20.14834-9.03191 11.1085-21.73622 13.43831-32.33962 5.92693zm23.19192-21.69517c1.55495-2.77706 1.07535-5.01369-1.85269-8.6483-5.60767-6.97072-13.82907-5.42368-16.47598 3.13129-1.78652 5.72201-1.38953 7.26899 2.8453 11.12724 4.26786 3.89545 5.45899 4.06326 9.14777 1.30466 2.33236-1.75206 5.17764-4.86467 6.3356-6.91489zm114.96756 65.49566c-42.43037-7.60454-68.48424-63.91136-49.94059-107.95411 6.7823-16.10368 19.96643-31.51757 33.38193-39.01034 7.75824-4.32412 12.78714-5.20024 29.99082-5.2373 19.07303-0.0203 21.53791 0.50298 31.74437 6.8775 15.45026 9.63611 27.93967 26.07527 33.21644 43.67002 5.50848 18.37749 5.45893 32.09543-0.18225 50.90167-10.71924 35.72989-43.45608 56.97782-78.21095 50.75256zm40.32958-14.83626c4.54907-2.44163 12.53897-9.33787 17.73313-15.32078 27.62534-31.77861 18.42801-82.23295-18.77523-102.92177-13.18398-7.32491-42.61237-7.28753-55.03548 0.0535-20.99194 12.41323-31.67815 29.43015-33.36548 53.06371-1.52184 21.32244 2.1836 33.90342 14.39164 48.96322 13.9451 17.20338 25.75608 22.32905 49.19616 21.3225 11.86076-0.50298 20.2641-2.18073 25.85526-5.18153zm-14.88784-31.29396c-7.62586-5.23748-13.03509-15.61902-13.0185-25.03154 0.0222-13.99747 13.23356-28.64732 25.83868-28.64732 12.80351 0 25.83874 14.68718 25.83874 29.13191 0 14.74309-13.49839 29.13196-27.31103 29.11331-2.59711 0-7.69208-2.05016-11.33122-4.54777zm19.65204-16.86783c5.80629-6.54222 1.42265-18.17255-6.81535-18.17255-5.54152 0-9.29661 4.23093-9.29661 10.49343 0 6.24389 3.75509 10.4935 9.31321 10.4935 2.38191 0 5.45885-1.24887 6.83186-2.79579zM277.18301 313.33681c1.29032-0.95057 5.2108-8.85329 8.71773-17.55743 11.92673-29.72838 40.94167-55.48682 70.17142-62.32705 6.73263-1.58425 19.60252-2.27396 29.84195-1.62163 23.3243 1.49114 43.62158 11.74231 61.68548 31.16353 6.76571 7.28764 12.30732 12.24549 12.30732 11.05265 0-3.29889 18.47764-23.78272 28.40282-31.51755 25.98765-20.22285 67.0947-22.94405 97.15167-6.4677 16.32716 8.94646 34.34142 27.43592 42.36429 43.46508 3.6558 7.3063 8.86664 13.97874 12.5886 16.15945 3.49031 2.03163 7.8078 5.5915 9.57781 7.92138 3.17621 4.15636 20.6611 11.87271 23.07628 10.19519 1.93543-1.32325-7.54318-39.06611-13.48179-53.66019-5.85586-14.40748-23.40711-45.19821-25.75607-45.19821-0.82704 0-2.59705 1.24867-3.93701 2.75855-3.60618 4.06305-5.27692 0.76408-2.33243-4.56657 3.10997-5.61017-0.39782-11.74218-17.48496-30.60438l-11.43058-12.61823-2.51444 6.20664c-1.37294 3.4108-3.29192 6.20673-4.25134 6.20673-2.41511 0-2.20005-1.56565 1.29026-9.1516 3.01071-6.56081 2.96108-6.65391-8.78375-16.92375-13.59757-11.87272-25.78918-20.52093-28.98184-20.52093-1.20758 0-2.79557 2.10612-3.5069 4.65952-2.01811 7.17595-4.78057 5.51714-4.43328-2.66516 0.47856-11.36949-4.30083-10.7918-6.33567 0.78275-1.83602 10.41893-6.38509 12.15225-4.96252 1.88241 1.85268-13.49416 1.45576-14.51923-6.99728-17.9301-11.33139-4.58509-36.83936-10.02751-46.963-10.02751l-8.35385 0 0.99261 11.72365c1.04209 12.13366-1.14129 17.79973-3.30845 8.64822-0.67783-2.87043-1.25715-8.77879-1.27366-13.12156l-0.037-7.92129-15.25187 1.45373c-21.10765 2.01304-25.85527 4.30552-24.58145 11.87268 0.56227 3.35507 0.0667 6.00164-1.14157 6.00164-1.19093 0-2.46467-2.36706-2.82856-5.23736-0.7282-5.74072-6.12069-6.24391-16.42635-1.56571-5.11141 2.32987-5.32655 3.01953-3.54001 11.92872 1.04216 5.20009 1.3399 10.08337 0.66153 10.829-1.80312 2.03149-5.062-4.71564-5.09504-10.58674-0.0222-2.81444-0.99245-5.77791-2.15049-6.57934-2.46474-1.71479-30.20579 14.8548-42.33124 25.27367-4.54906 3.91409-8.50265 7.26911-8.80036 7.45545-0.28084 0.18653 0.94288 3.67186 2.74605 7.73489 1.80303 4.06326 2.87827 8.68562 2.41516 10.28852-0.47915 1.58422-2.43175-0.52172-4.35064-4.69693-1.91882-4.15637-4.31748-7.5673-5.34312-7.5673-3.68891 0-28.30346 32.8784-39.05582 52.16921-6.07097 10.88491-14.98719 30.06388-19.83397 42.62613-8.65154 22.42215-8.73417 22.88813-4.48288 24.99421 4.2678 2.12485 4.2678 2.16206-0.42974 3.09396-4.66487 0.91344-6.69948 4.65974-9.44559 17.46424-1.40604 6.50489 1.09183 8.36876 6.21993 4.62242z">	    
</path></symbol>
  
<symbol id="minion2" viewBox="0 0 1024 1024">
<title>minion2</title>
<path class="path1" d="m 399.03015,999.1338 c -2.95312,-0.9091 -6.57473,-4.28776 -8.04805,-7.5082 -3.78558,-8.27468 -3.38738,-29.73681 0.71453,-38.51089 2.99516,-6.40679 3.09823,-9.33485 0.77187,-21.92722 -1.47671,-7.99317 -3.37697,-15.39698 -4.22282,-16.45286 -0.84583,-1.05595 -7.62376,-2.87139 -15.06202,-4.03439 -15.91082,-2.48766 -39.04899,-16.79287 -62.95652,-38.92298 -8.25557,-7.64181 -15.51746,-13.333 -16.1375,-12.64714 -2.80356,3.1011 21.95453,27.69164 34.61571,34.38146 18.48688,9.76795 20.7514,12.72703 20.7514,27.11616 0,15.52282 -4.30235,23.22445 -18.92369,33.87538 -29.54364,21.5211 -48.85345,16.74878 -78.17013,-19.31933 -11.75952,-14.46764 -13.92416,-21.86008 -17.10209,-58.40573 -1.33724,-15.37789 -3.33841,-31.45814 -4.447,-35.73381 -2.9406,-11.34155 -2.56944,-13.09328 3.10796,-14.66946 5.07635,-1.40931 5.13823,-1.81256 6.71583,-43.7537 0.87576,-23.28219 3.78672,-65.38959 6.46882,-93.57198 3.11211,-32.70066 4.1903,-53.23722 2.97994,-56.75867 -4.94233,-14.37903 0.62282,-63.35074 7.69679,-67.72972 2.9303,-1.81395 3.33264,-14.68305 3.32066,-106.21521 l -0.0138,-104.15119 -6.45022,-4.05993 -6.45023,-4.05995 0,-29.19288 c 0,-28.97342 0.0471,-29.2475 6.26272,-36.45626 4.61728,-5.35503 7.54471,-12.89903 11.1421,-28.71312 9.47852,-41.66775 18.82112,-58.71478 53.76868,-98.10957 19.68279,-22.18749 28.79907,-30.33967 50.57666,-45.22774 19.45062,-13.29728 26.22975,-19.130928 25.31064,-21.780422 -0.99141,-2.857725 -0.10919,-3.300542 4.19501,-2.105593 6.43514,1.786562 25.44658,-4.785186 25.36933,-8.769491 -0.0291,-1.515304 -3.37612,-7.763734 -7.43718,-13.885404 -5.25706,-7.924519 -11.75777,-13.672758 -22.57007,-19.957479 -8.35244,-4.854959 -15.18628,-9.839107 -15.18628,-11.075874 0,-3.264662 7.66696,-0.244565 24.59717,9.688895 10.95227,6.426055 16.75322,11.715527 21.88893,19.958962 3.84316,6.168703 7.31811,12.233561 7.72209,13.477491 0.4549,1.400684 4.57238,1.283196 10.81586,-0.308617 l 10.08133,-2.570265 1.52714,-18.026706 c 0.93928,-11.087373 0.65556,-20.58091 -0.73705,-24.661941 -1.24528,-3.649375 -1.41295,-6.635226 -0.37255,-6.635226 4.09877,0 6.3525,10.091077 6.3525,28.442987 l 0,19.223106 9.69595,0 9.69597,0 -0.45855,-11.657232 c -0.27237,-6.924202 0.7095,-13.214003 2.41825,-15.491483 4.74829,-6.328566 6.18978,-4.373262 3.86833,5.247159 -1.20524,4.994773 -1.53687,11.965923 -0.73691,15.491473 1.4437,6.362647 1.59763,6.410083 20.80496,6.410083 15.76402,0 19.35049,-0.662564 19.35049,-3.574943 0,-1.966228 0.96957,-3.574954 2.15462,-3.574954 1.18503,0 2.15462,1.608726 2.15462,3.574954 0,2.693362 2.61438,3.574943 10.60181,3.574943 l 10.6018,0 8.24205,-18.200319 c 7.64824,-16.889094 20.40371,-32.319177 23.70154,-28.671352 0.72552,0.80253 -1.07887,4.973902 -4.00972,9.269764 -6.72443,9.856046 -15.95554,27.713932 -17.71678,34.273498 -1.24261,4.628041 -0.30804,5.121881 12.16531,6.428467 26.95449,2.82354 60.81376,19.67568 98.86256,49.205079 20.64334,16.02115 24.35544,20.0954 38.16764,41.89168 19.93374,31.45635 34.24062,63.30473 38.24043,85.12654 2.65045,14.45997 4.37398,18.47289 10.50107,24.44927 l 7.3302,7.14991 -1.5627,29.07522 c -1.47693,27.4791 -1.88212,29.40262 -7.3812,35.03995 l -5.81852,5.96475 0.12433,80.55036 c 0.0682,44.3027 0.9133,92.677 1.87759,107.49843 1.64696,25.31443 2.19061,27.62174 8.96822,38.06107 7.13511,10.99006 7.23166,11.48876 8.7237,45.06706 0.8298,18.67473 2.15018,35.10204 2.93413,36.50517 4.81295,8.61408 7.52079,48.52293 7.52846,110.95594 0.007,55.09899 0.56515,67.68739 3.17161,71.49918 5.52903,8.08593 3.72658,43.83254 -4.55958,90.42529 -1.86495,10.48657 -4.68642,21.85288 -6.26995,25.25851 -3.39546,7.30256 -26.07867,24.22773 -39.47908,29.45749 -28.46555,11.10911 -57.52275,-3.12232 -69.5046,-34.04173 -6.64986,-17.16005 -5.4833,-24.52194 5.69095,-35.91525 5.33484,-5.43943 12.36427,-11.10443 15.62096,-12.58894 3.25671,-1.48452 11.95809,-7.09119 19.33637,-12.45927 10.13561,-7.37424 13.42761,-11.14246 13.46637,-15.41446 0.0593,-6.54336 -0.71657,-6.06605 -17.40101,10.70513 -5.45114,5.47941 -15.14691,12.67553 -21.54616,15.99131 -11.82386,6.12661 -39.75128,13.51575 -51.08293,13.51575 -11.27623,0 -19.8039,4.65177 -19.8039,10.80286 0,8.8786 3.31445,16.2355 12.74374,28.28657 7.6208,9.7397 8.79847,12.75011 8.77301,22.42562 -0.0605,23.02226 1.66553,21.92436 -34.1571,21.72666 -17.34109,-0.096 -36.37718,-1.04474 -42.30238,-2.10894 -16.25162,-2.91893 -49.19566,-12.40209 -52.24946,-15.04033 -3.2688,-2.82409 -3.42832,-19.32915 -0.46351,-47.95551 1.20694,-11.65315 1.6676,-21.77028 1.02375,-22.48249 -3.4001,-3.76093 -5.33813,6.41865 -6.90345,36.26077 l -1.73659,33.10688 -11.85038,6.73023 c -6.51773,3.70163 -18.34405,8.37645 -26.28074,10.38845 -14.57658,3.69544 -47.83517,4.57694 -57.73206,1.53024 z M 778.18593,779.01853 c -0.0262,-43.4124 -1.06387,-72.91433 -3.12918,-88.98134 -3.17624,-24.70951 -9.03369,-58.17988 -10.45731,-59.75457 -1.08628,-1.20158 -39.63325,16.65213 -57.79252,26.7676 -8.069,4.49478 -16.08911,10.58388 -17.82255,13.53133 -3.41468,5.80626 -10.73155,79.94699 -8.5192,86.32412 0.95074,2.74059 4.5402,3.61196 14.49938,3.51988 23.42873,-0.2166 42.67446,-3.45854 45.44908,-7.6558 1.41524,-2.1409 3.79098,-17.19467 5.27937,-33.45278 2.63879,-28.82355 2.38357,-33.06381 -3.29221,-54.69711 -0.60184,-2.29392 -0.18524,-4.17079 0.92553,-4.17079 5.31837,0 10.01679,46.67218 13.00245,129.16033 1.45074,40.08271 1.78235,42.47117 6.7005,48.26193 2.84581,3.35077 7.42916,6.09228 10.18518,6.09228 l 5.01095,0 -0.0395,-64.94508 z m -500.08707,55.63701 c 2.50554,-1.75535 2.40358,-3.91755 -0.64447,-13.66755 -1.99151,-6.37025 -4.92828,-27.14491 -6.52614,-46.16596 -2.4174,-28.77664 -2.43115,-41.9144 -0.0818,-78.24277 1.55283,-24.01253 3.4453,-44.34717 4.20552,-45.18809 2.78974,-3.08583 5.39213,5.82865 5.42727,18.59113 0.0184,7.20953 -1.11107,27.45865 -2.51317,44.99812 -3.04177,38.05077 -3.92501,36.50489 23.42885,41.00641 17.47495,2.87579 18.6299,2.79212 21.57216,-1.56267 4.31796,-6.39093 2.57138,-33.74295 -4.14278,-64.87722 -5.82152,-26.99514 -4.85929,-25.63922 -29.67535,-41.81635 -19.87025,-12.95303 -28.41356,-16.67014 -30.34969,-13.20489 -0.85591,1.53186 -2.19313,9.86814 -2.97164,18.52509 -0.77851,8.65691 -2.93113,30.21842 -4.78359,47.91449 -1.87349,17.89681 -3.49314,54.36656 -3.6498,82.18349 l -0.28167,50.00891 6.46384,1.54602 c 9.70601,2.32148 21.17226,2.29897 24.52256,-0.048 z m 256.15141,-34.71473 c 17.25369,-8.88525 26.51335,-17.84489 32.0609,-31.02229 4.61594,-10.96449 5.03068,-15.12626 5.05002,-50.67429 l 0.0207,-38.7287 -74.33426,0 -74.33427,0 0.0207,39.92034 c 0.0184,37.18645 0.37764,40.76755 5.22793,52.2907 7.75591,18.42627 22.48117,28.94219 45.38453,32.41099 3.5551,0.53844 16.15961,1.12917 28.01001,1.31278 18.73066,0.29022 23.02888,-0.42974 32.89305,-5.50953 z m -62.50722,-3.51511 c -14.78184,-2.24425 -24.87167,-9.25589 -34.4804,-23.96125 l -7.00779,-10.72486 -0.6869,-37.53709 -0.68694,-37.53705 68.16369,0 68.1637,0 -0.68367,39.11144 -0.68366,39.11145 -6.51747,8.89911 c -3.58459,4.89448 -11.81909,12.21224 -18.29884,16.26162 -10.78102,6.73734 -13.61226,7.40046 -33.34296,7.80913 -11.85885,0.24557 -27.1313,-0.399 -33.93876,-1.4325 z m 43.74938,-28.72788 c 10.57352,-10.48654 20.20244,-19.06642 21.39757,-19.06642 1.19515,0 2.17298,-1.0725 2.17298,-2.38331 0,-1.38699 -6.98049,-2.36805 -16.69828,-2.34681 -11.44987,0.0253 -15.68246,0.75278 -13.46634,2.31545 5.40838,3.81366 -0.27809,10.64086 -9.58667,11.50987 -10.16054,0.9485 -16.2813,-4.64117 -16.23575,-14.82704 0.0423,-9.446 1.84773,-12.43128 9.45257,-15.62953 7.27061,-3.05765 12.21336,-1.7189 17.49693,4.73906 2.80563,3.42926 6.5357,4.67412 13.75053,4.58908 l 9.90048,-0.11648 -18.2326,-18.94981 c -10.0279,-10.42246 -18.76537,-18.94989 -19.41656,-18.94989 -2.87402,0 -36.57511,36.37833 -37.86471,40.87272 -1.16297,4.05306 2.16366,8.99542 17.60348,26.15353 10.47061,11.63584 19.36691,21.15606 19.76961,21.15606 0.40268,0 9.3832,-8.57989 19.95676,-19.06642 z m 160.9866,-106.19221 c 9.4048,-7.28658 4.57214,-25.98685 -7.06175,-27.32583 -7.37732,-0.84908 -9.55907,-0.0981 -14.005,4.81956 -5.50555,6.08989 -5.45887,12.04034 0.15651,19.93669 5.13879,7.22631 13.56365,8.26162 20.91037,2.56958 z m -336.12016,-9.53323 c 6.73315,-5.21667 6.73315,-20.72942 0,-25.94609 -6.48128,-5.02148 -10.70674,-4.66745 -16.5843,1.38955 -4.01812,4.14073 -4.71146,6.71601 -3.68739,13.69619 1.99047,13.56772 10.73237,18.2511 20.27169,10.86035 z m 299.97109,-41.41782 c 30.81784,-1.87368 31.69527,-2.08346 64.63849,-15.45421 18.36811,-7.45511 36.3293,-14.97365 39.91373,-16.70796 l 6.51719,-3.15317 -1.49796,-19.95684 c -0.82388,-10.97628 -1.57506,-63.623 -1.6693,-116.99268 -0.16478,-93.39435 -0.32772,-97.12844 -4.33892,-99.50303 -6.48874,-3.84125 -22.87948,-3.04733 -26.11494,1.26498 -1.5401,2.05264 -5.5075,5.2807 -8.81648,7.17345 -3.30894,1.89276 -9.83732,9.59756 -14.50748,17.12181 -19.17041,30.88613 -32.61473,43.19631 -56.52741,51.75893 -26.19945,9.38145 -46.8589,12.01867 -67.18674,8.57654 -9.4294,-1.59667 -18.71746,-3.72546 -20.64019,-4.73061 -21.58084,-11.2821 -30.99371,-17.16067 -43.0649,-26.89506 -7.81224,-6.29991 -15.19439,-11.41876 -16.4048,-11.37524 -1.21041,0.0437 -8.89608,6.44776 -17.07923,14.23161 -22.02306,20.9484 -40.87662,29.03465 -71.07814,30.48524 -25.33283,1.21676 -48.01112,-2.07607 -62.89186,-9.13173 -12.64046,-5.99344 -34.24946,-29.30405 -49.37622,-53.26443 -9.51922,-15.07816 -14.17238,-20.48444 -17.64842,-20.50491 -2.59641,-0.0146 -5.16147,0.77658 -5.70016,1.75965 -0.53866,0.98312 -0.35349,51.58766 0.4115,112.45444 l 1.39091,110.66699 29.50462,16.6353 29.50464,16.63527 38.36577,3.27844 c 86.64427,7.40391 205.10296,9.83409 274.2963,5.62722 z M 479.81103,577.16998 c -7.00575,-3.16144 -15.76466,-14.23274 -18.49212,-23.37418 -1.97223,-6.6102 -1.93729,-12.26103 0.15583,-25.21669 3.45741,-21.3998 13.25121,-34.50071 27.35609,-36.59336 13.67939,-2.02955 23.34915,5.61561 31.13903,24.61942 10.58905,25.83237 7.172,46.85711 -9.43585,58.05778 -7.28948,4.91618 -22.61325,6.16661 -30.72298,2.50703 z M 419.88673,418.381 c 19.55946,-4.98072 37.85859,-16.63042 55.80091,-35.52426 8.12399,-8.55482 15.28394,-15.5356 15.91099,-15.51283 0.62707,0.0229 7.83561,6.54963 16.01905,14.50406 18.79565,18.26978 26.99246,23.9407 43.95077,30.40718 27.99064,10.67327 58.72292,9.16421 89.18083,-4.37913 13.28659,-5.90802 18.14994,-9.80001 31.19783,-24.9667 16.5171,-19.19928 24.43689,-34.44523 29.7238,-57.21957 12.58128,-54.19621 -13.60854,-114.71017 -59.8799,-138.35794 -20.83724,-10.64926 -48.33063,-15.0591 -69.63764,-11.16962 -20.75025,3.78781 -45.73388,18.29352 -64.33232,37.35186 -8.29529,8.50045 -15.73196,15.47812 -16.52594,15.50599 -0.79401,0.0279 -7.58105,-5.71219 -15.08231,-12.75579 -60.63756,-56.93779 -135.28039,-47.20011 -177.11019,23.10525 -14.26991,23.98407 -17.00632,36.23329 -16.06789,71.92533 l 0.81464,30.98297 8.15067,13.56331 c 12.69826,21.13076 35.35217,46.81767 47.09408,53.39934 21.74669,12.18948 54.33896,15.87684 80.79262,9.14055 z M 369.9256,391.9232 c -38.36506,-11.5287 -63.77301,-48.46152 -63.88487,-92.86266 -0.0432,-17.22049 0.79184,-21.53558 6.91568,-35.72884 7.88041,-18.26447 21.91314,-36.10754 35.11308,-44.64753 50.32235,-32.55697 115.41195,-3.39428 130.56785,58.49953 10.04148,41.00751 -10.28596,87.31136 -47.18042,107.47216 -12.51023,6.83619 -16.0193,7.63306 -35.55118,8.07356 -11.91901,0.2688 -23.61006,-0.0938 -25.98014,-0.80622 z m 39.58197,-8.05396 c 30.81281,-5.53042 53.72067,-28.64775 61.8465,-62.41204 6.93017,-28.7962 0.9939,-54.90716 -16.7835,-73.82308 -18.74931,-19.95007 -42.75981,-26.49548 -73.87188,-20.13793 -22.27488,4.55172 -31.47407,9.04943 -43.41935,21.22891 -15.62977,15.93618 -19.05258,25.24997 -19.0529,51.84484 -1.5e-4,13.33641 1.2432,26.54986 3.02536,32.15167 5.88813,18.50803 38.33012,47.11168 58.36718,51.46153 11.19093,2.42944 14.81597,2.39139 29.88859,-0.3139 z m -27.7652,-47.19605 c -4.12915,-2.42716 -9.68908,-7.94816 -12.35544,-12.26897 -12.85599,-20.83325 3.06197,-50.06344 27.25133,-50.0417 32.32498,0.0289 42.05309,46.4613 13.10481,62.54913 -9.65125,5.36362 -18.59982,5.2874 -28.0007,-0.23846 z m 23.05397,-17.88842 c 7.82741,-8.35465 3.78117,-22.915 -7.36352,-26.49731 -5.84619,-1.8792 -15.65682,7.79079 -15.65682,15.43238 0,7.678 9.81412,17.32091 15.65682,15.38376 2.64661,-0.87752 5.96019,-2.82099 7.36352,-4.31883 z m 161.17123,68.2182 c -25.35144,-10.05923 -42.97997,-27.17636 -54.34791,-52.77125 -5.35388,-12.05424 -5.95323,-15.9231 -5.95323,-38.42839 0,-22.49853 0.60042,-26.37709 5.94785,-38.42163 9.28509,-20.91376 21.15244,-34.11418 39.86675,-44.34499 16.15187,-8.82995 16.89063,-8.99064 41.33563,-8.99064 22.83125,0 25.89387,0.5456 37.02979,6.59682 16.08018,8.73793 33.78021,28.1736 41.74269,45.83589 5.92898,13.15157 6.44661,16.30929 6.44661,39.32455 0,22.1986 -0.65597,26.57306 -5.80862,38.735 -8.10521,19.1312 -24.61291,37.63969 -42.02987,47.12408 -12.27742,6.6857 -17.10733,7.92788 -33.87381,8.71194 -14.99483,0.70121 -22.07333,-0.0851 -30.35588,-3.37138 z m 56.17338,-10.27799 c 10.32437,-3.74929 15.84429,-7.81823 26.40643,-19.46531 21.33823,-23.53011 28.26969,-46.32701 22.5758,-74.24986 -3.87104,-18.98356 -19.21449,-42.33198 -33.13349,-50.4198 -15.4461,-8.97518 -71.64954,-10.63082 -86.59216,-2.55082 -11.44017,6.18611 -26.02363,23.32269 -33.1833,38.99265 -5.23564,11.45893 -6.06469,15.99834 -5.94576,32.55589 0.17283,24.07276 5.26033,37.56125 20.26383,53.72622 10.6892,11.51668 28.32076,22.74352 41.61093,26.49555 10.01127,2.82633 32.88635,0.40313 47.99772,-5.08452 z m -46.44948,-40.46435 c -10.74916,-2.05524 -16.85299,-6.28041 -21.65341,-14.98889 -8.85129,-16.05714 -3.65576,-35.43433 12.37989,-46.17206 9.93696,-6.65394 16.1229,-6.83727 28.08191,-0.83232 21.11947,10.6047 24.16739,42.26826 5.46355,56.75878 -7.25314,5.61928 -14.30516,7.14014 -24.27194,5.23449 z m 13.82261,-21.16794 c 5.72722,-7.00017 3.7976,-19.67734 -3.5882,-23.57362 -4.88839,-2.57879 -6.962,-2.57879 -11.85038,0 -12.02803,6.34522 -7.43997,28.11731 5.9252,28.11731 3.18778,0 7.46881,-2.04465 9.51338,-4.54369 z m 122.76502,22.22356 c 2.00669,-5.78443 1.55206,-34.36301 -0.54669,-34.36301 -1.82589,0 -4.554,18.76652 -4.59061,31.57878 -0.0184,7.14503 3.04762,8.8078 5.1373,2.78423 z m 0.32368,-71.74214 c -0.68893,-3.03622 -2.21214,-5.52035 -3.38496,-5.52035 -2.20459,0 -0.79837,24.24624 1.79694,30.98295 1.79395,4.65661 3.22298,-18.25693 1.58802,-25.4626 z M 275.85762,275.8947 c 1.58936,-1.36707 7.76071,-13.57166 13.71407,-27.12139 22.07456,-50.24111 56.72408,-74.59653 105.96473,-74.48332 30.09671,0.0692 54.63035,10.2539 80.52193,33.42734 7.26367,6.50111 13.84578,11.82022 14.62696,11.82022 0.78115,0 6.32106,-4.87389 12.3109,-10.83086 12.12751,-12.06099 31.52737,-25.30518 47.89485,-32.69759 8.84841,-3.99638 15.84713,-4.91434 38.80542,-5.08976 23.9286,-0.18279 30.09869,0.58256 42.34428,5.2529 23.82914,9.08811 43.33201,25.93146 60.75915,52.47363 19.28271,29.36829 28.12065,38.50971 41.21468,42.63001 6.59078,2.07392 12.55642,3.13673 13.25697,2.36181 0.70057,-0.77492 -0.37352,-9.59903 -2.38685,-19.60914 -4.9072,-24.39814 -20.84789,-58.61534 -41.6879,-89.48459 C 685.37792,138.14975 682.05777,135.28708 632.49713,103.5861 619.28957,95.138022 584.15935,82.031115 569.77352,80.18427 l -12.58703,-1.615944 -5.12084,12.093614 c -2.81644,6.651519 -5.76303,12.09365 -6.54801,12.09365 -3.50721,0 -3.75356,-3.497274 -0.8808,-12.503795 1.69985,-5.329235 2.64338,-10.18422 2.09674,-10.78887 -0.54663,-0.60463 -5.2426,-1.629089 -10.43547,-2.276518 -8.95345,-1.116303 -9.58686,-0.789228 -12.25185,6.327552 -1.54566,4.127618 -3.88947,7.062149 -5.20851,6.52119 -2.52884,-1.037149 -2.55686,-2.549087 -0.17283,-9.32515 1.30796,-3.717557 -0.0943,-4.170767 -12.90353,-4.170767 -13.62158,0 -14.33579,0.276549 -13.69685,5.303697 0.44858,3.52937 -0.58732,5.581113 -3.09648,6.132994 -2.6436,0.581483 -3.7706,-0.684821 -3.7706,-4.236597 0,-4.612303 -1.00999,-5.001408 -11.28002,-4.345523 -9.61367,0.613964 -11.28473,1.424519 -11.31176,5.486984 -0.0455,6.833056 -4.20613,8.201682 -5.04462,1.659378 -0.62191,-4.852603 -1.72595,-5.406463 -9.50156,-4.766622 -6.61074,0.543974 -8.93987,1.815084 -9.36907,5.113118 -0.88338,6.788255 -3.12599,7.936574 -6.25522,3.202888 -2.20491,-3.335458 -4.52347,-3.97042 -10.19798,-2.792901 -11.89881,2.46917 -14.04656,4.792224 -9.53203,10.310211 5.63294,6.884971 0.16548,9.329451 -6.16149,2.754751 l -5.07778,-5.276643 -17.05997,11.225133 c -48.31202,31.78828 -88.87597,76.01201 -102.76418,112.03581 -4.8623,12.61206 -16.15946,53.71849 -16.19062,58.91202 -0.0258,4.2753 4.54728,3.67627 10.40635,-1.3632 z">
</path></symbol>

<symbol id="minion3" viewBox="0 0 1024 1024">
<title>minion3</title>
<path class="path1" d="m 385.38273,994.39229 c -2.85824,-1.49734 -5.88406,-3.81274 -6.72404,-5.14539 -2.60071,-4.12612 -1.7432,-31.63258 1.23848,-39.72662 2.24425,-6.09212 2.35009,-10.34292 0.51182,-20.55444 -3.18211,-17.67625 -4.11197,-18.76824 -15.98187,-18.76824 -16.00732,0 -49.22886,-19.33348 -74.34298,-43.26436 -10.12589,-9.64879 -11.73807,-10.45894 -8.91449,-4.47973 4.2052,8.90496 19.68475,22.33463 34.98032,30.34805 8.82979,4.62596 17.23217,10.16728 18.67196,12.31401 3.30635,4.92981 3.51367,22.61884 0.34466,29.40379 -3.51947,7.53537 -11.2519,14.48187 -24.41286,21.93159 -9.10151,5.15193 -14.62558,6.61053 -25.34332,6.69175 -18.60838,0.1409 -25.32301,-3.99608 -47.61756,-29.339 -13.31611,-15.13686 -15.15635,-21.16997 -18.63731,-61.10066 -1.28905,-14.78663 -3.23555,-28.77482 -4.32557,-31.08498 -3.3721,-7.14649 -2.22799,-10.89569 4.25432,-13.94112 l 6.23618,-2.92982 0.0564,-34.49053 c 0.0545,-33.33909 1.5112,-56.11498 6.12695,-95.79158 4.08554,-35.11888 4.91894,-54.63171 2.40854,-56.39148 -3.19998,-2.24315 -2.85687,-25.5001 0.61159,-41.45446 3.83669,-17.64827 5.30264,-21.2196 8.71026,-21.2196 2.46785,0 2.83426,-15.69455 2.37603,-101.7806 l -0.54176,-101.78065 -6.2362,-3.91497 -6.23619,-3.91492 -0.58789,-27.80832 -0.58787,-27.80831 8.38311,-9.32045 c 4.61072,-5.12626 8.38313,-11.55356 8.38313,-14.28292 0,-6.34032 9.40078,-37.77555 14.97694,-50.0813 11.02489,-24.33028 21.0692,-44.90576 22.44398,-45.97579 0.83305,-0.64837 2.10773,-3.33841 2.83264,-5.97783 0.72496,-2.63946 5.03391,-9.53582 9.57548,-15.32527 8.7216,-11.11803 10.02146,-15.8398 5.777,-20.98529 -2.12995,-2.58212 -1.75518,-2.91946 2.07874,-1.87116 3.84325,1.05087 4.67714,0.29119 4.67714,-4.26102 0,-9.65353 -7.1465,-12.88049 -28.52541,-12.88049 -11.47112,0 -19.2854,-0.95533 -19.2854,-2.35773 0,-1.4196 8.54059,-2.35773 21.46434,-2.35773 20.20754,0 21.75016,0.3451 26.34647,5.89432 2.68521,3.24189 6.66749,5.89434 8.84953,5.89434 2.18205,0 12.8801,-5.3049 23.77347,-11.78866 10.89334,-6.48377 21.10553,-11.78867 22.69378,-11.78867 3.59436,0 3.7441,-4.13852 0.28329,-7.83106 -1.4324,-1.52829 -7.98042,-5.872941 -14.55112,-9.654727 -6.57068,-3.781756 -11.94672,-7.760452 -11.94672,-8.841487 0,-3.739454 4.26922,-1.929543 15.63076,6.626597 10.91465,8.219556 11.98014,8.531676 24.57386,7.197796 14.43721,-1.5291 24.23602,-5.548776 24.23602,-9.942102 0,-2.932407 -13.69325,-21.772743 -22.82887,-31.409844 -7.43417,-7.842227 -17.12571,-14.500308 -21.12175,-14.510629 -1.87846,-0.0056 -3.99373,-1.718309 -4.70065,-3.807703 -2.02788,-5.993865 7.73622,-2.187238 21.38152,8.3358 9.73238,7.505423 30.9254,31.801853 33.06419,37.905959 0.3287,0.938082 6.87672,-0.239553 14.55112,-2.616979 7.67442,-2.377425 16.99364,-4.353475 20.70939,-4.391241 9.25386,-0.09392 8.76036,-5.100049 -1.64303,-16.666154 -4.61942,-5.135641 -7.33326,-9.33757 -6.03084,-9.33757 1.30242,0 4.91114,3.08778 8.01934,6.861694 6.72168,8.161313 18.8807,14.357906 28.17336,14.357906 l 6.7041,0 2.32524,-28.683727 c 2.35558,-29.058342 4.4302,-36.0495947 9.1193,-30.731141 1.94013,2.200551 1.94013,2.829275 0,2.829275 -1.4868,0 -2.49447,3.493695 -2.49447,8.648376 0,4.75661 -1.04037,15.424226 -2.31188,23.705864 -1.27151,8.281626 -1.81334,15.622918 -1.20403,16.313997 2.12117,2.405901 17.14365,5.415873 34.72552,6.95779 l 17.69773,1.55207 2.81245,-6.780008 c 1.54675,-3.72901 3.63861,-8.622331 4.64836,-10.874063 1.00994,-2.251711 1.83628,-5.220666 1.83628,-6.597667 0,-1.376978 1.87086,-6.895571 4.15746,-12.263502 2.28661,-5.367943 4.15746,-11.038566 4.15746,-12.601394 0,-1.562806 1.40323,-3.452196 3.1181,-4.198611 4.64771,-2.02286 3.89155,4.391219 -2.29659,19.479482 -11.02159,26.873648 -11.64721,29.729282 -7.43719,33.943929 4.10425,4.108736 19.13397,7.220227 22.36115,4.629271 1.22862,-0.98635 4.41673,-6.253354 7.08466,-11.704506 4.97514,-10.165491 10.42957,-14.902334 10.42957,-9.057584 0,3.187406 -9.85618,18.173857 -12.99208,19.754672 -3.19292,1.609572 -1.41336,5.108421 2.59842,5.108421 2.28661,0 4.15746,-1.060975 4.15746,-2.357737 0,-1.29675 0.96886,-2.357736 2.15307,-2.357736 1.18404,0 4.46843,-2.38722 7.29834,-5.304894 11.51184,-11.868616 14.71808,-15.014131 20.45089,-20.063616 6.096,-5.369332 11.67231,-6.92649 11.67231,-3.259396 0,1.112423 -5.84638,6.110783 -12.99206,11.10744 -17.3865,12.157746 -23.43943,19.079956 -20.36191,23.285975 3.93346,5.375606 24.01532,15.454093 30.79314,15.454093 4.61412,0 8.77358,-2.60943 15.03322,-9.430937 9.18983,-10.014647 11.59666,-11.215054 13.00021,-6.483759 1.68694,5.686879 -1.06497,11.191196 -8.03969,16.080356 -8.22396,5.764821 -8.71154,8.084261 -2.49299,11.858971 2.50031,1.5178 6.19046,4.47281 8.20002,6.56671 4.01744,4.18579 18.31428,12.90769 27.26928,16.63581 3.95608,1.64699 5.71651,4.03887 5.71651,7.76722 0,2.96304 2.14741,8.02896 4.77194,11.25759 2.62451,3.22864 9.31653,13.29709 14.87108,22.37438 5.55437,9.07726 10.73206,17.03462 11.50569,17.68299 0.77361,0.64837 6.06356,9.13621 11.7553,18.86187 15.29896,26.14129 21.25062,42.07197 26.67082,71.3891 0.8378,4.53138 3.5262,7.80277 8.7192,10.6098 l 7.508,4.05835 -1.3794,24.75621 c -1.771,31.78101 -2.7149,36.28382 -8.1781,39.01177 -3.4447,1.71997 -4.918,5.29691 -6.2675,15.21609 -1.8116,13.3161 -0.05,143.2463 2.431,179.306 1.2988,18.87839 1.8822,20.81505 9.1822,30.48549 7.3768,9.77221 7.8012,11.2212 7.9073,26.99566 0.1379,20.6406 2.8257,47.18146 6.8235,67.40006 2.0542,10.38842 3.5131,38.2611 4.5046,86.05725 1.1228,54.12614 2.1464,71.9161 4.3675,75.91434 3.3163,5.96963 3.8469,29.00427 1.0099,43.83582 -1.04,5.43705 -3.0248,17.3124 -4.4106,26.38967 -5.9114,38.71886 -8.3116,44.31984 -22.8007,53.20622 -5.1447,3.15542 -9.8219,6.26761 -10.3936,6.91599 -3.334,3.78148 -11.70277,7.22973 -23.56034,9.70784 -31.42958,6.56839 -57.5712,-10.05219 -67.44933,-42.88351 -3.4861,-11.58674 -3.40496,-11.99579 4.22265,-21.28503 9.08107,-11.0593 18.92527,-18.62904 24.22636,-18.62904 2.39586,0 4.35618,-1.06098 4.35618,-2.35772 0,-1.29677 0.91732,-2.35775 2.03833,-2.35775 1.12118,0 7.20138,-3.74604 13.51175,-8.32451 7.54329,-5.47299 11.47342,-9.91496 11.47342,-12.96752 0,-4.51385 -3.11061,-6.47137 -4.50385,-2.83436 -2.6034,6.79559 -33.38658,29.46296 -46.19371,34.01522 -11.1746,3.97191 -35.2488,8.96737 -43.22963,8.97025 -4.213,10e-4 -10.0594,1.03752 -12.99207,2.30217 -4.46994,1.92751 -5.33219,3.79133 -5.33219,11.52507 0,7.72658 1.4754,10.92307 9.07939,19.67144 12.92323,14.86815 13.71014,17.21401 11.22915,33.47518 l -2.12414,13.92206 -41.8322,-1.5424 c -27.98388,-1.03184 -44.65845,-2.67144 -50.36982,-4.95288 -4.69559,-1.87576 -14.71068,-4.62978 -22.25576,-6.12007 -7.54506,-1.49025 -14.75443,-4.12557 -16.02079,-5.85626 -1.6745,-2.28846 -1.70059,-11.66059 -0.0956,-34.36177 1.21379,-17.16825 1.72587,-31.76058 1.13797,-32.42738 -3.20406,-3.63413 -4.95416,6.39923 -5.90252,33.83931 l -1.0593,30.65052 -7.93223,5.24548 c -4.36272,2.88503 -13.07707,6.9736 -19.36523,9.08569 -6.28816,2.11212 -14.14503,4.79132 -17.45971,5.95376 -8.58272,3.0098 -51.17237,2.321 -57.37462,-0.9279 z m 390.7101,-212.10172 c -0.073,-51.22953 -0.8915,-69.98126 -4.0403,-92.54103 -4.6126,-33.04717 -7.3199,-47.96157 -9.066,-49.94198 -1.4804,-1.67907 -59.86699,23.58462 -71.36703,30.88021 -7.56492,4.79924 -8.01309,5.75561 -9.51343,20.30121 -0.86608,8.39559 -2.50313,22.44599 -3.63778,31.22317 -1.13482,8.77715 -2.06327,21.92659 -2.06327,29.22101 l 0,13.26259 27.01867,-1.24292 c 35.14336,-1.61666 36.1967,-2.35319 38.55015,-26.95563 2.30291,-24.07103 2.09836,-46.63466 -0.53564,-59.12576 -2.60806,-12.36783 0.40095,-13.33609 3.66355,-1.17886 3.06618,11.42563 5.38388,39.62893 8.18588,99.61421 2.5986,55.62856 4.0023,62.76138 13.2482,67.32455 3.5915,1.77259 7.2318,3.26442 8.0892,3.31519 0.8575,0.0508 1.518,-28.81943 1.4678,-64.15596 z m -514.7776,54.49795 c 2.49727,-1.47241 4.83959,-2.96108 5.20518,-3.30815 0.3656,-0.34704 -1.33534,-5.07759 -3.77978,-10.51227 -3.44144,-7.65114 -4.87078,-16.88173 -6.33327,-40.89936 -1.03881,-17.05997 -2.1226,-32.60959 -2.40842,-34.55473 -0.49965,-3.4004 1.26354,-36.69143 3.83986,-72.5003 1.29832,-18.04571 3.53503,-21.31758 7.25308,-10.6098 1.62642,4.68401 1.57701,15.97335 -0.17795,40.6709 -1.33609,18.80292 -2.60622,37.31879 -2.82246,41.14639 -0.35039,6.20183 0.51178,7.27268 7.92176,9.83916 4.5732,1.58396 15.5645,2.96146 24.42507,3.06112 l 16.11014,0.18128 0,-19.68892 c 0,-10.82886 -0.85313,-22.76491 -1.89585,-26.52449 -1.0427,-3.75958 -3.08323,-13.34772 -4.53452,-21.30694 -3.05782,-16.77002 -4.20847,-18.78844 -15.39631,-27.0075 -9.43408,-6.93068 -39.33483,-23.35882 -42.51525,-23.35882 -2.69134,0 -3.7962,5.5385 -6.58468,33.00827 -1.25051,12.31915 -3.16372,29.29483 -4.25154,37.72373 -1.08782,8.42888 -2.46584,39.29918 -3.06223,68.60066 l -1.08434,53.27537 11.07982,2.41104 c 6.09387,1.32607 11.84286,2.55041 12.7755,2.72079 0.93264,0.17013 3.73894,-0.89495 6.23619,-2.36736 z m 259.27812,-30.95737 c 4.05276,-1.60211 9.86629,-4.76909 12.9189,-7.0377 3.05274,-2.26864 6.09034,-4.12478 6.75055,-4.12478 1.53227,0 5.94002,-4.11142 13.58758,-12.67408 7.98483,-8.94023 9.26381,-17.11874 9.26381,-59.23677 l 0,-35.366 -75.35397,-0.61885 -75.35399,-0.61884 0,39.16513 c 0,43.10382 1.25879,49.12398 12.99197,62.13498 8.17166,9.06165 18.51617,14.77804 32.74012,18.09228 15.81135,3.68412 53.42192,3.85554 62.45503,0.28463 z m -48.94329,-6.31678 c -24.34369,-1.96555 -26.23123,-2.72379 -38.1441,-15.32336 -13.52865,-14.30846 -14.29329,-17.17241 -15.143,-56.71773 l -0.7599,-35.36601 70.67685,0 70.67683,0 0.57588,31.97853 c 0.63427,35.22798 -0.96685,43.02936 -11.44117,55.74709 -14.64956,17.78728 -35.00169,23.02737 -76.44139,19.68148 z m 23.39976,-16.04493 c 18.40667,-19.34201 30.3069,-30.20652 34.38439,-31.39179 3.05796,-0.8889 0.78209,-1.83013 -6.85525,-2.8351 -6.28815,-0.82742 -14.70701,-0.60242 -18.70856,0.49991 -4.00156,1.10238 -5.47553,2.11295 -3.27543,2.24568 3.73558,0.22539 3.67727,0.63114 -0.88204,6.13567 -6.14996,7.42496 -13.89908,7.53852 -21.30699,0.31224 -12.71893,-12.40709 -2.93569,-30.26375 15.07079,-27.50762 1.71496,0.26253 5.50784,3.04066 8.42868,6.17367 4.14676,4.44809 7.5634,5.69406 15.59048,5.68551 l 10.2799,-0.0115 -6.24452,-6.47287 c -3.43451,-3.56006 -10.91793,-10.70089 -16.62985,-15.86852 -5.71192,-5.16761 -12.09539,-11.15907 -14.18547,-13.31435 -3.57984,-3.69151 -4.29532,-3.42015 -12.34058,4.6802 -22.26885,22.42227 -30.63071,31.93962 -30.63071,34.86427 0,3.7755 36.05118,43.28864 39.49589,43.28864 0.90148,0 4.41565,-2.9177 7.80927,-6.48375 z M 673.17901,668.44305 c 5.30491,-4.55048 5.17669,-18.9487 -0.21005,-23.57771 -9.62287,-8.26925 -25.66616,-0.84591 -25.66616,11.87594 0,12.86552 16.05511,20.12601 25.87621,11.70177 z M 328.60336,657.50917 c 5.91291,-6.30045 6.17203,-14.54958 0.65364,-20.80862 -8.45785,-9.59305 -22.86603,-3.42024 -22.86603,9.79637 0,7.97539 6.50388,16.13869 12.8581,16.13869 2.49874,0 6.70817,-2.30689 9.35429,-5.12644 z m 378.65402,-54.75977 42.28535,-16.26817 -1.4097,-8.48804 c -0.7753,-4.66841 -1.867,-55.15879 -2.4263,-112.20076 -0.65786,-67.09806 -1.78521,-104.76293 -3.19342,-106.68743 -3.97901,-5.43775 -23.408,-3.67801 -32.23662,2.9198 -11.73916,8.77288 -13.89058,11.0059 -19.30841,20.04055 -2.72165,4.53864 -11.85458,15.89344 -20.29556,25.23293 -13.71231,15.17188 -16.93717,17.50926 -30.27198,21.94136 -8.20848,2.72826 -17.79726,5.96194 -21.30832,7.18591 -3.51121,1.22395 -20.35293,2.2254 -37.4263,2.2254 -28.01031,0 -32.46262,-0.58349 -45.5844,-5.97406 -15.18029,-6.23625 -32.27317,-16.99811 -41.9008,-26.38123 -8.68893,-8.4683 -13.99707,-9.0298 -20.78853,-2.19909 -15.03633,15.12326 -19.05367,18.40457 -28.76584,23.49588 -9.83498,5.15571 -15.44892,7.24316 -35.57958,13.22958 -4.70585,1.3994 -16.86678,2.5444 -27.02427,2.5444 -16.02113,0 -24.11637,-1.34687 -52.7657,-8.77917 -11.39667,-2.95652 -34.90206,-25.37791 -48.88189,-46.62756 -3.41247,-5.18701 -8.77258,-12.61388 -11.91135,-16.50413 -3.1388,-3.89027 -5.71123,-7.86895 -5.71649,-8.8415 -0.015,-2.53717 -7.12642,-2.18392 -9.46787,0.4702 -1.20574,1.36675 -1.7561,43.66601 -1.41319,108.61655 l 0.56159,106.37801 24.38318,12.98529 c 13.41072,7.14191 27.18945,14.41354 30.61937,16.15924 6.60247,3.3604 12.52379,4.07458 68.55464,8.26811 19.41225,1.45287 35.7318,3.13705 36.26567,3.74259 0.53389,0.60554 57.61461,0.80454 126.84605,0.44224 l 125.8753,-0.65875 z m -255.35526,1.01968 c -7.43146,-1.03585 -22.90137,-2.00738 -34.37756,-2.15895 -19.57977,-0.2586 -21.27917,-0.6752 -27.57172,-6.75934 -6.45212,-6.23837 -6.61298,-6.81839 -4.24988,-15.32527 1.35082,-4.86283 3.23453,-8.8415 4.186,-8.8415 0.9515,0 1.72997,-0.99048 1.72997,-2.20106 0,-2.58965 12.34134,-25.86726 16.11017,-30.3862 1.42911,-1.71353 2.5984,-4.62223 2.5984,-6.46376 0,-1.84152 1.87086,-4.67341 4.15747,-6.29307 2.2866,-1.61967 4.15746,-4.15523 4.15746,-5.63454 0,-6.39911 20.41159,-24.45661 42.22557,-37.35565 12.78994,-7.56295 23.72216,-14.39416 24.29382,-15.18041 0.57164,-0.78626 4.78108,-2.87227 9.35429,-4.63556 4.57321,-1.76326 11.1212,-4.5509 14.55112,-6.19474 17.73007,-8.49746 21.7746,-9.42978 40.39835,-9.3122 13.29789,0.084 19.87833,1.0327 20.44092,2.94717 0.45631,1.55283 2.16753,2.82336 3.80274,2.82336 1.63521,0 4.59749,1.01262 6.58276,2.2503 1.98526,1.23766 7.92046,4.2945 13.18929,6.79301 10.80242,5.12251 18.7119,15.76199 22.1977,29.85928 1.28249,5.18703 3.47363,25.34563 4.86904,44.79694 3.95558,55.13513 3.07985,56.75911 -32.48906,60.24063 -77.35415,7.57153 -117.43356,9.64136 -136.15685,7.03156 z m 161.51504,-89.08122 c -2.18384,-35.93367 -8.90612,-45.24128 -42.53316,-58.89031 -11.444,-4.64512 -38.95325,-5.52272 -46.43128,-1.48128 -2.74553,1.48378 -9.20129,4.41924 -14.34614,6.52321 -17.32454,7.0849 -17.95309,8.46189 -17.04676,37.34425 l 0.79534,25.34562 27.35397,10e-4 c 15.04471,10e-4 35.09548,-1.22394 44.5572,-2.72355 12.6184,-1.99992 18.43535,-2.03154 21.82667,-0.11883 5.11701,2.88625 22.34569,9.62318 25.06168,9.7999 0.95123,0.0621 1.2943,-7.04903 0.76248,-15.80212 z m -147.4836,9.6494 23.38572,-1.52839 -0.12383,-12.01786 c -0.13215,-12.82774 -2.71184,-33.70314 -4.40152,-35.61959 -0.56157,-0.63693 -9.82892,4.06742 -20.59415,10.4541 -17.67269,10.48469 -39.44114,29.70692 -42.25714,37.3144 -1.27321,3.43971 8.15749,3.73924 43.99101,1.39734 z m -70.55798,-88.11125 c 5.36532,-1.33373 14.43225,-3.57986 20.14876,-4.99143 5.7165,-1.41157 13.66765,-4.23212 17.66921,-6.26788 9.92592,-5.04972 30.32876,-20.72996 33.65805,-25.8673 3.12712,-4.82542 13.99654,-14.6763 16.19375,-14.6763 0.81419,0 3.72816,2.15485 6.47554,4.78854 2.74737,2.63369 8.09391,7.67334 11.8812,11.19924 3.78728,3.52587 7.99671,7.5075 9.35429,8.84804 21.95763,21.68221 71.40181,30.91587 107.70062,20.11303 23.93699,-7.12383 25.32942,-7.68277 32.16412,-12.91118 34.53819,-26.42154 52.96173,-66.49248 50.12568,-109.02334 -1.00926,-15.13574 -2.66943,-21.18112 -10.72659,-39.06072 -12.26618,-27.2192 -28.13403,-44.65705 -52.03944,-57.18792 -23.24686,-12.18562 -62.49912,-15.83083 -86.29959,-8.01432 -11.25741,3.69716 -32.86722,15.01182 -35.3384,18.50279 -0.57166,0.80758 -4.31336,4.01115 -8.31493,7.11904 -4.00156,3.1079 -10.52228,9.15744 -14.49051,13.44338 -3.96822,4.28594 -9.11307,7.76251 -11.433,7.72571 -2.31994,-0.0368 -8.42752,-4.32786 -13.57238,-9.53567 -11.91239,-12.05812 -30.5989,-23.92306 -47.63444,-30.2453 -19.34627,-7.17981 -59.37793,-7.1025 -76.49173,0.14769 -28.23901,11.96341 -44.28986,26.13614 -60.76726,53.65684 -14.52585,24.26123 -17.89292,44.44854 -13.89352,83.29843 1.49654,14.53732 2.655,17.39144 13.39778,33.00827 26.4623,38.46832 38.07824,46.95063 75.21645,54.92524 17.52351,3.76277 25.09567,3.96836 37.01632,1.00511 z M 358.09449,408.29029 C 317.26708,398.48292 283.87429,347.4 291.81937,306.90536 c 3.89854,-19.87022 9.79132,-32.22383 22.68281,-47.55221 17.2557,-20.51751 34.17452,-28.73686 61.86487,-30.05467 17.62867,-0.83896 23.58352,-0.1426 35.97156,4.20593 22.67566,7.95999 43.74963,27.72644 52.32594,49.07942 14.08824,35.0764 6.66195,74.84687 -18.89577,101.19335 -4.05811,4.18337 -14.32136,11.52721 -22.80717,16.31964 -14.3002,8.07619 -16.96105,8.76074 -36.37778,9.35914 -11.52197,0.35509 -24.34217,-0.16957 -28.48934,-1.16567 z m 40.8,-8.16553 c 20.83838,-4.51769 33.87844,-11.84783 45.38468,-25.51187 12.89844,-15.31728 18.116,-29.1946 19.54042,-51.97232 1.02309,-16.35974 0.58459,-19.44263 -4.41332,-31.02905 -17.32392,-40.16135 -59.57012,-54.3303 -109.09548,-36.58948 -24.15938,8.65426 -39.0076,23.94228 -44.16736,45.47546 -2.77419,11.57742 -1.27469,42.19053 2.55178,52.0962 6.7936,17.5868 35.4888,41.51638 56.83816,47.39859 13.87967,3.82418 16.28864,3.83374 33.36112,0.13239 z m -29.10223,-44.13441 c -29.83418,-16.5779 -19.02596,-61.16111 14.82717,-61.16111 19.23051,0 30.90491,12.02361 30.90491,31.8294 0,14.45887 -4.80104,22.69985 -17.12688,29.39828 -10.88291,5.91431 -17.87114,5.89803 -28.6052,-0.0664 z m 24.18126,-19.08267 c 3.98461,-5.21093 4.99599,-12.96342 2.29072,-17.55873 -1.97812,-3.36015 -9.80204,-8.01559 -13.47097,-8.01559 -4.6213,0 -11.96165,9.16653 -11.96165,14.93756 0,13.87262 15.29273,20.90163 23.1419,10.63676 z m 167.06195,68.13118 c -25.88436,-10.21027 -41.29447,-22.97055 -55.25853,-45.75664 -8.50579,-13.87946 -11.91282,-37.64382 -8.56832,-59.76505 3.24369,-21.45463 6.26774,-27.49662 23.29161,-46.53625 12.66013,-14.15923 25.13069,-20.89434 47.14561,-25.46261 16.78383,-3.48275 20.21457,-3.50744 36.78238,-0.26461 51.97476,10.17308 84.11892,65.59259 67.51951,116.41005 -4.55326,13.93942 -13.6388,29.1117 -22.04536,36.81443 -2.58544,2.36895 -5.88429,5.64958 -7.33077,7.29028 -3.88473,4.40601 -10.70562,8.20359 -26.13878,14.55273 -10.82904,4.45503 -17.61535,5.62518 -31.48296,5.42842 -9.72298,-0.13788 -20.48449,-1.35778 -23.91439,-2.71075 z m 52.88541,-10.40845 c 11.67348,-3.64105 27.9097,-14.67236 33.38192,-22.68048 1.71503,-2.50965 5.22277,-6.7566 7.79523,-9.43764 2.57247,-2.68107 4.67715,-6.27476 4.67715,-7.98603 0,-1.71129 0.7076,-3.11143 1.57268,-3.11143 3.01931,0 6.74224,-18.90854 6.74224,-34.24393 0,-20.73797 -5.52858,-33.10594 -23.90541,-53.47876 -8.45378,-9.37207 -13.08985,-11.18375 -38.45651,-15.02819 -36.06048,-5.46516 -46.85209,-4.14148 -68.53824,8.40692 -9.17299,5.30778 -21.97633,21.08875 -28.6424,35.30357 -6.80859,14.51875 -6.66068,42.98026 0.3042,58.52934 5.35767,11.96099 18.57586,27.15759 30.42889,34.98321 7.35839,4.85812 25.50819,11.78242 35.26659,13.45445 8.17491,1.40068 27.00104,-0.85185 39.37366,-4.71103 z m -58.28395,-44.33923 c -20.87579,-15.52772 -16.86416,-46.22235 7.41557,-56.73943 18.31596,-7.93373 40.72483,4.78006 43.7064,24.79709 4.22598,28.37034 -28.46381,48.79576 -51.12197,31.94234 z m 27.7449,-17.20365 c 4.48457,-4.46657 4.71539,-13.79549 0.46081,-18.62122 -4.6858,-5.31462 -17.44771,-5.0838 -20.96974,0.37925 -4.44033,6.88747 -3.42741,14.51612 2.64663,19.93532 5.90411,5.26743 11.39611,4.74681 17.8623,-1.69335 z m 125.02117,24.0288 c 0.69397,-2.05117 1.15029,-11.33477 1.01394,-20.63017 l -0.24779,-16.90073 -2.77319,15.32527 c -1.52546,8.4289 -2.8171,17.71246 -2.87032,20.63017 -0.11136,6.09487 3.00751,7.10234 4.87736,1.57546 z m 0.25063,-71.25055 c -2.42514,-10.95977 -3.50259,-3.10636 -1.77026,12.90407 l 1.74198,16.10012 0.64923,-11.63242 c 0.35704,-6.39782 0.0781,-14.21512 -0.62095,-17.37177 z M 273.24985,274.08545 c 11.01006,-23.37167 11.87502,-24.81505 21.90873,-36.55954 7.66419,-8.97102 14.97342,-15.80123 21.54614,-20.13417 24.15401,-15.92295 32.13721,-18.05248 67.63866,-18.04267 25.45769,0.008 30.76945,0.70682 42.41523,5.5877 14.82101,6.21165 32.59136,17.9399 46.00039,30.3597 3.15007,2.9177 6.90724,5.3049 8.34923,5.3049 2.55888,0 13.59311,-8.68838 21.52771,-16.95105 8.61379,-8.96989 36.84858,-23.41747 52.3308,-26.77726 35.53416,-7.71133 75.39456,-1.06251 98.52718,16.43457 15.37546,11.62976 23.49381,20.06738 34.2011,35.54581 4.48508,6.48376 11.02925,15.01367 14.54264,18.95535 3.51322,3.94167 8.72634,10.56319 11.58452,14.71444 2.85833,4.15127 6.95909,7.55736 9.11315,7.56916 2.1539,0.0115 7.53864,1.25234 11.96601,2.75686 4.42753,1.50452 8.59214,2.12044 9.25483,1.36877 2.24136,-2.54213 -5.91173,-37.76044 -11.54144,-49.85541 -6.99567,-15.02939 -10.81189,-22.4103 -14.04322,-27.16106 -6.63149,-9.74934 -16.39472,-24.84385 -18.26109,-28.23265 -1.1433,-2.07585 -2.55168,-4.30475 -3.12989,-4.95314 -0.57822,-0.64837 -3.51056,-4.89228 -6.51625,-9.43091 -7.94456,-11.99595 -22.3698,-28.4553 -31.92847,-36.43095 -4.57321,-3.81583 -8.78255,-7.57538 -9.3543,-8.35456 -3.72824,-5.08173 -51.18848,-32.918431 -56.22965,-32.980201 -1.77208,-0.0213 -4.4109,-1.36573 -5.86402,-2.986656 -2.11947,-2.36413 -3.39848,-1.89769 -6.46551,2.357746 -4.85792,6.740211 -5.27067,6.674131 -8.18638,-1.30989 -2.2289,-6.103022 -3.74438,-6.832666 -19.5883,-9.430947 -9.44509,-1.548866 -33.72802,-2.816142 -53.96228,-2.816142 -35.40375,0 -36.78958,0.17768 -36.78958,4.71546 0,2.593509 0.83533,4.715463 1.85631,4.715463 2.65082,0 4.55779,6.670206 2.34953,8.218147 -1.01682,0.71278 -3.51621,-1.905691 -5.55422,-5.818821 -3.19464,-6.133938 -4.91977,-7.114789 -12.51376,-7.114789 -4.84455,0 -10.95701,0.939094 -13.58326,2.086881 -2.62621,1.147762 -11.79066,3.945052 -20.36542,6.216188 -8.57476,2.27112 -20.12022,6.279311 -25.65658,8.907011 -9.25946,4.39482 -9.97285,5.30638 -8.90267,11.37539 1.25839,7.13643 -2.08987,11.79403 -4.13435,5.75109 -2.10731,-6.22862 -9.59991,-4.16606 -27.29289,7.51321 -19.26632,12.71789 -29.63513,21.42349 -29.63513,24.88157 0,1.30201 -3.50786,6.28813 -7.79522,11.08028 -9.45302,10.56595 -12.99208,15.59646 -12.99208,18.46725 0,1.19268 -1.48356,3.56507 -3.2968,5.2719 -1.81326,1.70682 -5.269,7.93737 -7.67946,13.84564 -2.41045,5.90829 -4.90539,11.27282 -5.5443,11.92119 -3.20726,3.25479 -14.31607,26.29252 -18.19038,37.72373 -4.45042,13.13096 -9.47772,31.35901 -11.8101,42.82113 -1.24812,6.13365 -1.13392,6.21494 5.02567,3.57791 4.96349,-2.12497 8.50562,-7.37439 16.66917,-24.70363 z">        
</path></symbol>

</svg>
